<svg xmlns="http://www.w3.org/2000/svg" xmlns:xlink="http://www.w3.org/1999/xlink" width="500" zoomAndPan="magnify" viewBox="0 0 375 374.999991" height="500" preserveAspectRatio="xMidYMid meet" version="1.0"><defs><g/></defs><path fill="#5e17eb" d="M 161.296875 188.675781 C 163.375 188.5 164.75 187.425781 164.828125 186.984375 C 164.675781 186.609375 163.316406 184.925781 160.996094 185.234375 C 158.675781 185.546875 156.15625 185.707031 156.28125 186.640625 C 156.429688 186.96875 158.980469 188.550781 161.296875 188.675781 Z M 76.277344 160.492188 C 96.726562 157.011719 94.570312 155.804688 105.890625 162.257812 C 114.613281 167.230469 128.5 180.96875 134.421875 187.109375 L 140.921875 186.242188 C 136.898438 184.089844 134.082031 180.636719 133.515625 174.441406 C 136.652344 178.003906 139.367188 180.960938 154.261719 180.625 C 169.15625 180.296875 181.875 190.429688 178.046875 200.898438 C 176.921875 199.335938 175.640625 198.019531 174.242188 196.910156 L 88.613281 217.347656 L 88.613281 217.339844 L 88.613281 217.347656 C 86.023438 208.898438 62.171875 205.472656 61.378906 196.898438 L 61.375 196.886719 L 119.210938 189.148438 L 97.136719 161.933594 C 89.816406 167.253906 47.128906 169.617188 46.148438 162.285156 C 50.609375 164.675781 54.09375 164.273438 76.28125 160.492188 " fill-opacity="1" fill-rule="nonzero"/><path fill="#5e17eb" d="M 86.402344 168.226562 C 91.445312 167.367188 95.113281 166.644531 97.949219 166.144531 L 102.75 172.269531 C 87.945312 175.28125 50.320312 174.859375 49.546875 169.050781 C 54.003906 171.441406 64.21875 172.003906 86.402344 168.226562 " fill-opacity="1" fill-rule="nonzero"/><path fill="#5e17eb" d="M 92.46875 176.375 C 97.515625 175.519531 101.183594 174.796875 104.019531 174.292969 L 108.820312 180.417969 C 94.011719 183.433594 56.09375 180.808594 55.316406 174.996094 C 59.777344 177.394531 70.285156 180.152344 92.46875 176.375 " fill-opacity="1" fill-rule="nonzero"/><path fill="#5e17eb" d="M 110.480469 181.644531 L 115.277344 187.773438 C 100.472656 190.78125 62.3125 186.316406 61.535156 180.503906 C 65.992188 182.898438 76.746094 187.503906 98.929688 183.726562 C 103.976562 182.867188 107.644531 182.148438 110.480469 181.644531 " fill-opacity="1" fill-rule="nonzero"/><g fill="#5e17eb" fill-opacity="1"><g transform="translate(192.841266, 180.180456)"><g><path d="M 1.625 -3.015625 C 1.625 -4.578125 1.957031 -5.90625 2.625 -7 L 2.921875 -7 C 2.898438 -6.832031 2.890625 -6.660156 2.890625 -6.484375 C 2.890625 -4.992188 3.421875 -3.691406 4.484375 -2.578125 C 5.554688 -1.460938 7.023438 -0.90625 8.890625 -0.90625 C 10.335938 -0.90625 11.46875 -1.25 12.28125 -1.9375 C 13.09375 -2.632812 13.5 -3.515625 13.5 -4.578125 C 13.5 -5.203125 13.296875 -5.757812 12.890625 -6.25 C 12.492188 -6.75 11.832031 -7.304688 10.90625 -7.921875 L 5.25 -11.640625 C 3.15625 -13.046875 2.109375 -14.773438 2.109375 -16.828125 C 2.109375 -17.046875 2.128906 -17.265625 2.171875 -17.484375 C 2.304688 -19.191406 2.972656 -20.5625 4.171875 -21.59375 C 5.367188 -22.632812 6.972656 -23.15625 8.984375 -23.15625 C 10.171875 -23.15625 11.640625 -23.050781 13.390625 -22.84375 L 15.4375 -22.84375 L 15.015625 -18.0625 L 14.6875 -18.0625 C 14.6875 -19.1875 14.269531 -20.085938 13.4375 -20.765625 C 12.613281 -21.453125 11.507812 -21.796875 10.125 -21.796875 C 8.4375 -21.796875 7.210938 -21.273438 6.453125 -20.234375 C 6.066406 -19.742188 5.875 -19.25 5.875 -18.75 C 5.875 -18.25 5.96875 -17.828125 6.15625 -17.484375 C 6.46875 -16.921875 7.128906 -16.316406 8.140625 -15.671875 L 14.34375 -11.640625 C 16.28125 -10.367188 17.25 -8.707031 17.25 -6.65625 C 17.25 -4.363281 16.460938 -2.601562 14.890625 -1.375 C 13.328125 -0.15625 11.25 0.453125 8.65625 0.453125 C 7.1875 0.453125 5.828125 0.273438 4.578125 -0.078125 C 3.335938 -0.429688 2.425781 -0.914062 1.84375 -1.53125 C 1.695312 -1.9375 1.625 -2.429688 1.625 -3.015625 Z M 1.625 -3.015625 "/></g></g></g><g fill="#5e17eb" fill-opacity="1"><g transform="translate(211.590178, 180.180456)"><g><path d="M 12.78125 0.421875 C 9.144531 0.398438 6.289062 -0.5 4.21875 -2.28125 C 2.144531 -4.070312 1.109375 -6.554688 1.109375 -9.734375 C 1.109375 -12.910156 2.140625 -15.394531 4.203125 -17.1875 C 6.265625 -18.988281 9.125 -19.890625 12.78125 -19.890625 C 15.632812 -19.890625 18.066406 -19.390625 20.078125 -18.390625 L 20.078125 -13.234375 L 19.859375 -13.234375 C 19.316406 -15.160156 18.484375 -16.535156 17.359375 -17.359375 C 16.234375 -18.179688 14.816406 -18.59375 13.109375 -18.59375 C 10.816406 -18.59375 9.0625 -17.804688 7.84375 -16.234375 C 6.632812 -14.671875 6.03125 -12.53125 6.03125 -9.8125 C 6.03125 -7.09375 6.625 -4.9375 7.8125 -3.34375 C 9.050781 -1.695312 10.726562 -0.875 12.84375 -0.875 C 14.375 -0.875 15.632812 -1.109375 16.625 -1.578125 C 17.625 -2.054688 18.414062 -2.820312 19 -3.875 C 19.59375 -4.925781 20.03125 -6.347656 20.3125 -8.140625 L 20.53125 -8.140625 L 20.921875 -3.25 C 20.253906 -2.144531 19.234375 -1.253906 17.859375 -0.578125 C 16.484375 0.0859375 14.789062 0.421875 12.78125 0.421875 Z M 12.78125 0.421875 "/></g></g></g><g fill="#5e17eb" fill-opacity="1"><g transform="translate(233.71259, 180.180456)"><g><path d="M 22.90625 -0.328125 L 23.25 -0.328125 L 23.25 0 L 14.34375 0 L 14.34375 -0.328125 L 14.65625 -0.328125 C 15.15625 -0.328125 15.578125 -0.488281 15.921875 -0.8125 C 16.273438 -1.132812 16.453125 -1.546875 16.453125 -2.046875 L 16.453125 -9.046875 L 7.921875 -9.046875 L 7.921875 -2.046875 C 7.941406 -1.546875 8.125 -1.132812 8.46875 -0.8125 C 8.8125 -0.488281 9.222656 -0.328125 9.703125 -0.328125 L 10.0625 -0.328125 L 10.0625 0 L 1.109375 0 L 1.109375 -0.328125 L 1.453125 -0.328125 C 1.953125 -0.328125 2.375 -0.492188 2.71875 -0.828125 C 3.070312 -1.160156 3.25 -1.566406 3.25 -2.046875 L 3.25 -17.421875 C 3.25 -17.890625 3.070312 -18.289062 2.71875 -18.625 C 2.375 -18.96875 1.953125 -19.140625 1.453125 -19.140625 L 1.109375 -19.140625 L 1.109375 -19.46875 L 10.0625 -19.46875 L 10.0625 -19.140625 L 9.703125 -19.140625 C 9.222656 -19.140625 8.8125 -18.976562 8.46875 -18.65625 C 8.125 -18.332031 7.941406 -17.929688 7.921875 -17.453125 L 7.921875 -10.34375 L 16.453125 -10.34375 L 16.453125 -17.421875 C 16.453125 -18.085938 16.15625 -18.582031 15.5625 -18.90625 C 15.28125 -19.0625 14.976562 -19.140625 14.65625 -19.140625 L 14.34375 -19.140625 L 14.34375 -19.46875 L 23.25 -19.46875 L 23.25 -19.140625 L 22.90625 -19.140625 C 22.425781 -19.140625 22.015625 -18.976562 21.671875 -18.65625 C 21.328125 -18.332031 21.140625 -17.921875 21.109375 -17.421875 L 21.109375 -2.015625 C 21.140625 -1.335938 21.4375 -0.847656 22 -0.546875 C 22.28125 -0.398438 22.582031 -0.328125 22.90625 -0.328125 Z M 22.90625 -0.328125 "/></g></g></g><g fill="#5e17eb" fill-opacity="1"><g transform="translate(258.040759, 180.180456)"><g><path d="M 1.109375 -0.328125 L 1.484375 -0.328125 C 2.003906 -0.328125 2.445312 -0.492188 2.8125 -0.828125 C 3.1875 -1.160156 3.375 -1.566406 3.375 -2.046875 L 3.375 -17.421875 C 3.375 -17.890625 3.1875 -18.289062 2.8125 -18.625 C 2.445312 -18.96875 2.003906 -19.140625 1.484375 -19.140625 L 1.109375 -19.140625 L 1.109375 -19.46875 L 10.3125 -19.46875 L 10.3125 -19.140625 L 9.921875 -19.140625 C 9.429688 -19.140625 9 -18.976562 8.625 -18.65625 C 8.257812 -18.332031 8.066406 -17.929688 8.046875 -17.453125 L 8.046875 -2.046875 C 8.066406 -1.546875 8.257812 -1.132812 8.625 -0.8125 C 9 -0.488281 9.429688 -0.328125 9.921875 -0.328125 L 10.3125 -0.328125 L 10.3125 0 L 1.109375 0 Z M 1.109375 -0.328125 "/></g></g></g><g fill="#5e17eb" fill-opacity="1"><g transform="translate(269.458781, 180.180456)"><g><path d="M 17.484375 -10.734375 C 16.398438 -8.859375 14.703125 -7.921875 12.390625 -7.921875 C 11.242188 -7.921875 10.109375 -8.296875 8.984375 -9.046875 L 8.984375 -9.3125 C 11.148438 -9.3125 12.535156 -10.414062 13.140625 -12.625 C 13.265625 -13.113281 13.328125 -13.507812 13.328125 -13.8125 C 13.328125 -15.3125 12.96875 -16.414062 12.25 -17.125 C 11.539062 -17.84375 10.59375 -18.203125 9.40625 -18.203125 L 7.953125 -18.203125 L 7.953125 -2.046875 C 7.972656 -1.347656 8.265625 -0.847656 8.828125 -0.546875 C 9.085938 -0.398438 9.378906 -0.328125 9.703125 -0.328125 L 10.09375 -0.328125 L 10.09375 0 L 1.140625 0 L 1.140625 -0.328125 L 1.53125 -0.328125 C 2 -0.328125 2.398438 -0.488281 2.734375 -0.8125 C 3.078125 -1.132812 3.25 -1.535156 3.25 -2.015625 L 3.25 -17.421875 C 3.25 -17.921875 3.078125 -18.332031 2.734375 -18.65625 C 2.398438 -18.976562 1.984375 -19.140625 1.484375 -19.140625 L 1.109375 -19.140625 L 1.109375 -19.46875 L 10.703125 -19.46875 C 13.191406 -19.46875 15.050781 -18.96875 16.28125 -17.96875 C 17.601562 -16.957031 18.265625 -15.5625 18.265625 -13.78125 C 18.265625 -12.65625 18.003906 -11.640625 17.484375 -10.734375 Z M 17.484375 -10.734375 "/></g></g></g><g fill="#5e17eb" fill-opacity="1"><g transform="translate(288.434754, 180.180456)"><g><path d="M 22.90625 -0.328125 L 23.25 -0.328125 L 23.25 0 L 14.34375 0 L 14.34375 -0.328125 L 14.65625 -0.328125 C 15.15625 -0.328125 15.578125 -0.488281 15.921875 -0.8125 C 16.273438 -1.132812 16.453125 -1.546875 16.453125 -2.046875 L 16.453125 -9.046875 L 7.921875 -9.046875 L 7.921875 -2.046875 C 7.941406 -1.546875 8.125 -1.132812 8.46875 -0.8125 C 8.8125 -0.488281 9.222656 -0.328125 9.703125 -0.328125 L 10.0625 -0.328125 L 10.0625 0 L 1.109375 0 L 1.109375 -0.328125 L 1.453125 -0.328125 C 1.953125 -0.328125 2.375 -0.492188 2.71875 -0.828125 C 3.070312 -1.160156 3.25 -1.566406 3.25 -2.046875 L 3.25 -17.421875 C 3.25 -17.890625 3.070312 -18.289062 2.71875 -18.625 C 2.375 -18.96875 1.953125 -19.140625 1.453125 -19.140625 L 1.109375 -19.140625 L 1.109375 -19.46875 L 10.0625 -19.46875 L 10.0625 -19.140625 L 9.703125 -19.140625 C 9.222656 -19.140625 8.8125 -18.976562 8.46875 -18.65625 C 8.125 -18.332031 7.941406 -17.929688 7.921875 -17.453125 L 7.921875 -10.34375 L 16.453125 -10.34375 L 16.453125 -17.421875 C 16.453125 -18.085938 16.15625 -18.582031 15.5625 -18.90625 C 15.28125 -19.0625 14.976562 -19.140625 14.65625 -19.140625 L 14.34375 -19.140625 L 14.34375 -19.46875 L 23.25 -19.46875 L 23.25 -19.140625 L 22.90625 -19.140625 C 22.425781 -19.140625 22.015625 -18.976562 21.671875 -18.65625 C 21.328125 -18.332031 21.140625 -17.921875 21.109375 -17.421875 L 21.109375 -2.015625 C 21.140625 -1.335938 21.4375 -0.847656 22 -0.546875 C 22.28125 -0.398438 22.582031 -0.328125 22.90625 -0.328125 Z M 22.90625 -0.328125 "/></g></g></g><g fill="#5e17eb" fill-opacity="1"><g transform="translate(312.762923, 180.180456)"><g><path d="M 1.140625 -9.734375 C 1.140625 -12.847656 2.179688 -15.316406 4.265625 -17.140625 C 6.347656 -18.972656 9.125 -19.890625 12.59375 -19.890625 C 16.070312 -19.890625 18.859375 -18.972656 20.953125 -17.140625 C 23.046875 -15.316406 24.09375 -12.847656 24.09375 -9.734375 C 24.09375 -6.617188 23.046875 -4.144531 20.953125 -2.3125 C 18.859375 -0.488281 16.078125 0.421875 12.609375 0.421875 C 9.148438 0.421875 6.375 -0.488281 4.28125 -2.3125 C 2.1875 -4.144531 1.140625 -6.617188 1.140625 -9.734375 Z M 6.09375 -9.71875 C 6.09375 -7 6.679688 -4.84375 7.859375 -3.25 C 9.046875 -1.664062 10.625 -0.875 12.59375 -0.875 C 14.570312 -0.875 16.148438 -1.664062 17.328125 -3.25 C 18.515625 -4.84375 19.109375 -7 19.109375 -9.71875 C 19.109375 -12.445312 18.515625 -14.609375 17.328125 -16.203125 C 16.148438 -17.796875 14.570312 -18.59375 12.59375 -18.59375 C 10.625 -18.59375 9.046875 -17.796875 7.859375 -16.203125 C 6.679688 -14.609375 6.09375 -12.445312 6.09375 -9.71875 Z M 6.09375 -9.71875 "/></g></g></g><g fill="#5e17eb" fill-opacity="1"><g transform="translate(337.966909, 180.180456)"><g><path d="M 1.109375 0 L 1.109375 -0.328125 L 1.484375 -0.328125 C 1.984375 -0.328125 2.398438 -0.488281 2.734375 -0.8125 C 3.078125 -1.132812 3.25 -1.535156 3.25 -2.015625 L 3.25 -17.421875 C 3.25 -17.890625 3.070312 -18.289062 2.71875 -18.625 C 2.375 -18.96875 1.960938 -19.140625 1.484375 -19.140625 L 1.109375 -19.140625 L 1.109375 -19.46875 L 10.125 -19.46875 L 10.125 -19.140625 L 9.734375 -19.140625 C 9.234375 -19.140625 8.8125 -18.976562 8.46875 -18.65625 C 8.125 -18.332031 7.953125 -17.921875 7.953125 -17.421875 L 7.953125 -1.296875 L 11.84375 -1.296875 C 13.175781 -1.316406 14.304688 -1.734375 15.234375 -2.546875 C 16.171875 -3.359375 16.859375 -4.5 17.296875 -5.96875 L 17.640625 -5.96875 L 16.375 0 Z M 1.109375 0 "/></g></g></g><g fill="#5e17eb" fill-opacity="1"><g transform="translate(192.841266, 208.680454)"><g><path d="M 5.046875 -19.96875 C 7.347656 -22.09375 10.445312 -23.15625 14.34375 -23.15625 C 18.25 -23.15625 21.351562 -22.09375 23.65625 -19.96875 C 25.96875 -17.851562 27.125 -14.976562 27.125 -11.34375 C 27.125 -7.71875 25.96875 -4.84375 23.65625 -2.71875 C 21.351562 -0.601562 18.25 0.453125 14.34375 0.453125 C 10.445312 0.453125 7.347656 -0.601562 5.046875 -2.71875 C 2.742188 -4.84375 1.59375 -7.71875 1.59375 -11.34375 C 1.59375 -14.976562 2.742188 -17.851562 5.046875 -19.96875 Z M 8.90625 -3.703125 C 10.238281 -1.835938 12.050781 -0.90625 14.34375 -0.90625 C 16.632812 -0.90625 18.445312 -1.835938 19.78125 -3.703125 C 21.125 -5.578125 21.796875 -8.125 21.796875 -11.34375 C 21.796875 -14.570312 21.125 -17.117188 19.78125 -18.984375 C 18.445312 -20.859375 16.632812 -21.796875 14.34375 -21.796875 C 12.050781 -21.796875 10.238281 -20.859375 8.90625 -18.984375 C 7.570312 -17.117188 6.90625 -14.570312 6.90625 -11.34375 C 6.90625 -8.125 7.570312 -5.578125 8.90625 -3.703125 Z M 8.90625 -3.703125 "/></g></g></g><g fill="#5e17eb" fill-opacity="1"><g transform="translate(221.321443, 208.680454)"><g><path d="M 9.1875 -18.125 L 8.140625 -18.125 L 8.140625 -2.046875 C 8.140625 -1.523438 8.316406 -1.109375 8.671875 -0.796875 C 9.035156 -0.484375 9.441406 -0.328125 9.890625 -0.328125 L 10.25 -0.328125 L 10.25 0 L 1.328125 0 L 1.328125 -0.328125 L 1.71875 -0.328125 C 2.195312 -0.328125 2.601562 -0.488281 2.9375 -0.8125 C 3.269531 -1.132812 3.4375 -1.535156 3.4375 -2.015625 L 3.4375 -17.453125 C 3.4375 -17.929688 3.269531 -18.332031 2.9375 -18.65625 C 2.601562 -18.976562 2.207031 -19.140625 1.75 -19.140625 L 1.328125 -19.140625 L 1.328125 -19.46875 L 11.28125 -19.46875 C 13.226562 -19.46875 14.863281 -19.085938 16.1875 -18.328125 C 17.65625 -17.484375 18.390625 -16.085938 18.390625 -14.140625 C 18.390625 -12.890625 18.007812 -11.757812 17.25 -10.75 C 16.5 -9.75 15.378906 -9.140625 13.890625 -8.921875 C 14.472656 -8.722656 15.050781 -8.351562 15.625 -7.8125 C 16.195312 -7.269531 16.65625 -6.71875 17 -6.15625 C 17.6875 -4.925781 18.410156 -3.796875 19.171875 -2.765625 C 19.929688 -1.742188 20.539062 -1.082031 21 -0.78125 C 21.46875 -0.476562 22.035156 -0.328125 22.703125 -0.328125 L 22.703125 0 L 19.984375 0 C 18.191406 0 16.8125 -0.210938 15.84375 -0.640625 C 14.882812 -1.078125 14.023438 -1.898438 13.265625 -3.109375 C 12.097656 -4.972656 11.375 -6.445312 11.09375 -7.53125 C 10.832031 -8.175781 10.523438 -8.660156 10.171875 -8.984375 C 9.816406 -9.304688 9.472656 -9.488281 9.140625 -9.53125 L 9.140625 -9.796875 L 9.953125 -9.796875 C 11.796875 -9.816406 12.921875 -10.898438 13.328125 -13.046875 C 13.421875 -13.367188 13.46875 -13.644531 13.46875 -13.875 C 13.46875 -14.113281 13.453125 -14.441406 13.421875 -14.859375 C 13.398438 -15.285156 13.265625 -15.765625 13.015625 -16.296875 C 12.773438 -16.828125 12.457031 -17.210938 12.0625 -17.453125 C 11.394531 -17.859375 10.703125 -18.070312 9.984375 -18.09375 C 9.753906 -18.113281 9.488281 -18.125 9.1875 -18.125 Z M 9.1875 -18.125 "/></g></g></g><g fill="#5e17eb" fill-opacity="1"><g transform="translate(242.632915, 208.680454)"><g><path d="M 17.1875 -14.625 C 17.1875 -13.820312 17.015625 -13.117188 16.671875 -12.515625 C 16.003906 -11.347656 14.988281 -10.710938 13.625 -10.609375 C 15.070312 -10.492188 16.28125 -9.976562 17.25 -9.0625 C 18.226562 -8.144531 18.71875 -6.972656 18.71875 -5.546875 C 18.71875 -2.753906 17.039062 -1.003906 13.6875 -0.296875 C 12.738281 -0.0976562 11.703125 0 10.578125 0 L 1.171875 0 L 1.171875 -0.328125 L 1.53125 -0.328125 C 2.019531 -0.328125 2.429688 -0.488281 2.765625 -0.8125 C 3.109375 -1.132812 3.289062 -1.546875 3.3125 -2.046875 L 3.3125 -17.421875 C 3.289062 -18.203125 2.921875 -18.734375 2.203125 -19.015625 C 1.984375 -19.097656 1.757812 -19.140625 1.53125 -19.140625 L 1.171875 -19.140625 L 1.171875 -19.46875 L 9.859375 -19.46875 C 14.742188 -19.46875 17.1875 -17.851562 17.1875 -14.625 Z M 13.46875 -5.84375 C 13.46875 -6.832031 13.257812 -7.664062 12.84375 -8.34375 C 12.082031 -9.632812 10.773438 -10.28125 8.921875 -10.28125 C 8.898438 -10.28125 8.878906 -10.28125 8.859375 -10.28125 L 8.859375 -10.578125 C 9.890625 -10.578125 10.726562 -10.878906 11.375 -11.484375 C 12.03125 -12.085938 12.359375 -13.03125 12.359375 -14.3125 C 12.359375 -16.90625 11.179688 -18.203125 8.828125 -18.203125 L 7.921875 -18.203125 L 7.921875 -1.296875 L 9.21875 -1.296875 C 10.46875 -1.296875 11.488281 -1.660156 12.28125 -2.390625 C 13.070312 -3.128906 13.46875 -4.28125 13.46875 -5.84375 Z M 13.46875 -5.84375 "/></g></g></g><g fill="#5e17eb" fill-opacity="1"><g transform="translate(262.225199, 208.680454)"><g><path d="M 1.109375 -0.328125 L 1.484375 -0.328125 C 2.003906 -0.328125 2.445312 -0.492188 2.8125 -0.828125 C 3.1875 -1.160156 3.375 -1.566406 3.375 -2.046875 L 3.375 -17.421875 C 3.375 -17.890625 3.1875 -18.289062 2.8125 -18.625 C 2.445312 -18.96875 2.003906 -19.140625 1.484375 -19.140625 L 1.109375 -19.140625 L 1.109375 -19.46875 L 10.3125 -19.46875 L 10.3125 -19.140625 L 9.921875 -19.140625 C 9.429688 -19.140625 9 -18.976562 8.625 -18.65625 C 8.257812 -18.332031 8.066406 -17.929688 8.046875 -17.453125 L 8.046875 -2.046875 C 8.066406 -1.546875 8.257812 -1.132812 8.625 -0.8125 C 9 -0.488281 9.429688 -0.328125 9.921875 -0.328125 L 10.3125 -0.328125 L 10.3125 0 L 1.109375 0 Z M 1.109375 -0.328125 "/></g></g></g><g fill="#5e17eb" fill-opacity="1"><g transform="translate(273.643221, 208.680454)"><g><path d="M 18.78125 -14.859375 L 18.78125 -15.140625 C 18.78125 -16.078125 18.519531 -16.816406 18 -17.359375 C 17.476562 -17.898438 16.753906 -18.179688 15.828125 -18.203125 L 12.0625 -18.203125 L 12.0625 -2.015625 C 12.082031 -1.535156 12.265625 -1.132812 12.609375 -0.8125 C 12.960938 -0.488281 13.375 -0.328125 13.84375 -0.328125 L 14.203125 -0.328125 L 14.203125 0 L 5.25 0 L 5.25 -0.328125 L 5.578125 -0.328125 C 6.078125 -0.328125 6.5 -0.488281 6.84375 -0.8125 C 7.1875 -1.132812 7.359375 -1.546875 7.359375 -2.046875 L 7.359375 -18.203125 L 3.640625 -18.203125 C 2.679688 -18.179688 1.941406 -17.898438 1.421875 -17.359375 C 0.910156 -16.816406 0.65625 -16.078125 0.65625 -15.140625 L 0.65625 -14.859375 L 0.328125 -14.859375 L 0.328125 -19.984375 C 0.628906 -19.867188 1.128906 -19.757812 1.828125 -19.65625 C 2.535156 -19.550781 3.171875 -19.5 3.734375 -19.5 L 15.703125 -19.5 C 16.648438 -19.5 17.429688 -19.566406 18.046875 -19.703125 C 18.660156 -19.847656 19.015625 -19.941406 19.109375 -19.984375 L 19.109375 -14.859375 Z M 18.78125 -14.859375 "/></g></g></g><g fill="#8c52ff" fill-opacity="1"><g transform="translate(192.841266, 237.126035)"><g><path d="M 6.6875 -6.859375 L 6.546875 -6.859375 C 6.347656 -6.859375 6.160156 -6.800781 5.984375 -6.6875 C 5.816406 -6.582031 5.671875 -6.445312 5.546875 -6.28125 L 3.59375 -3.09375 L 3.59375 -0.71875 C 3.59375 -0.550781 3.648438 -0.40625 3.765625 -0.28125 C 3.890625 -0.15625 4.046875 -0.09375 4.234375 -0.09375 L 4.34375 -0.09375 L 4.34375 0 L 2.1875 0 L 2.1875 -0.09375 L 2.3125 -0.09375 C 2.476562 -0.09375 2.625 -0.148438 2.75 -0.265625 C 2.875 -0.390625 2.941406 -0.539062 2.953125 -0.71875 L 2.953125 -3.109375 L 1.046875 -6.28125 C 0.953125 -6.4375 0.8125 -6.570312 0.625 -6.6875 C 0.445312 -6.800781 0.257812 -6.859375 0.0625 -6.859375 L -0.078125 -6.859375 L -0.078125 -6.953125 L 2.359375 -6.953125 L 2.359375 -6.859375 L 2.234375 -6.859375 C 2.085938 -6.859375 1.972656 -6.789062 1.890625 -6.65625 C 1.847656 -6.582031 1.828125 -6.507812 1.828125 -6.4375 C 1.828125 -6.375 1.847656 -6.304688 1.890625 -6.234375 L 3.375 -3.453125 L 4.96875 -6.25 C 5 -6.3125 5.015625 -6.375 5.015625 -6.4375 C 5.015625 -6.507812 4.988281 -6.582031 4.9375 -6.65625 C 4.863281 -6.789062 4.753906 -6.859375 4.609375 -6.859375 L 4.484375 -6.859375 L 4.484375 -6.953125 L 6.6875 -6.953125 Z M 6.6875 -6.859375 "/></g></g></g><g fill="#8c52ff" fill-opacity="1"><g transform="translate(200.105666, 237.126035)"><g><path d="M 2.171875 -5.703125 C 2.679688 -5.972656 3.238281 -6.109375 3.84375 -6.109375 C 4.457031 -6.109375 5.019531 -5.972656 5.53125 -5.703125 C 6.039062 -5.441406 6.445312 -5.070312 6.75 -4.59375 C 7.050781 -4.125 7.203125 -3.585938 7.203125 -2.984375 C 7.203125 -2.378906 7.050781 -1.835938 6.75 -1.359375 C 6.445312 -0.878906 6.039062 -0.507812 5.53125 -0.25 C 5.019531 0.0078125 4.492188 0.140625 3.953125 0.140625 C 3.421875 0.140625 2.945312 0.0664062 2.53125 -0.078125 C 2.125 -0.234375 1.769531 -0.445312 1.46875 -0.71875 C 1.175781 -1 0.941406 -1.332031 0.765625 -1.71875 C 0.585938 -2.113281 0.5 -2.570312 0.5 -3.09375 C 0.5 -3.625 0.648438 -4.125 0.953125 -4.59375 C 1.253906 -5.070312 1.660156 -5.441406 2.171875 -5.703125 Z M 1.984375 -0.9375 C 2.484375 -0.414062 3.101562 -0.15625 3.84375 -0.15625 C 4.582031 -0.15625 5.203125 -0.414062 5.703125 -0.9375 C 6.210938 -1.46875 6.46875 -2.144531 6.46875 -2.96875 C 6.46875 -3.800781 6.210938 -4.476562 5.703125 -5 C 5.203125 -5.53125 4.582031 -5.796875 3.84375 -5.796875 C 3.101562 -5.796875 2.484375 -5.53125 1.984375 -5 C 1.484375 -4.476562 1.234375 -3.800781 1.234375 -2.96875 C 1.234375 -2.144531 1.484375 -1.46875 1.984375 -0.9375 Z M 1.984375 -0.9375 "/></g></g></g><g fill="#8c52ff" fill-opacity="1"><g transform="translate(208.493005, 237.126035)"><g><path d="M 6.609375 -5.859375 L 6.453125 -5.859375 C 6.273438 -5.859375 6.140625 -5.789062 6.046875 -5.65625 C 6.015625 -5.59375 5.992188 -5.523438 5.984375 -5.453125 L 5.984375 -2.09375 C 5.984375 -1.40625 5.757812 -0.859375 5.3125 -0.453125 C 4.875 -0.0546875 4.269531 0.140625 3.5 0.140625 C 2.738281 0.140625 2.132812 -0.0546875 1.6875 -0.453125 C 1.25 -0.847656 1.03125 -1.394531 1.03125 -2.09375 L 1.03125 -5.4375 C 1.03125 -5.550781 0.984375 -5.648438 0.890625 -5.734375 C 0.796875 -5.816406 0.679688 -5.859375 0.546875 -5.859375 L 0.390625 -5.859375 L 0.390625 -5.96875 L 2.28125 -5.96875 L 2.28125 -5.859375 L 2.140625 -5.859375 C 2.003906 -5.859375 1.890625 -5.816406 1.796875 -5.734375 C 1.703125 -5.648438 1.65625 -5.550781 1.65625 -5.4375 L 1.65625 -2.203125 C 1.65625 -1.566406 1.816406 -1.0625 2.140625 -0.6875 C 2.472656 -0.3125 2.9375 -0.125 3.53125 -0.125 C 4.132812 -0.125 4.617188 -0.300781 4.984375 -0.65625 C 5.347656 -1.007812 5.53125 -1.488281 5.53125 -2.09375 L 5.53125 -5.4375 C 5.519531 -5.5625 5.46875 -5.660156 5.375 -5.734375 C 5.289062 -5.816406 5.179688 -5.859375 5.046875 -5.859375 L 4.90625 -5.859375 L 4.90625 -5.96875 L 6.609375 -5.96875 Z M 6.609375 -5.859375 "/></g></g></g><g fill="#8c52ff" fill-opacity="1"><g transform="translate(216.144969, 237.126035)"><g><path d="M 2.40625 -5.65625 L 1.875 -5.65625 L 1.875 -0.640625 C 1.882812 -0.429688 1.976562 -0.273438 2.15625 -0.171875 C 2.238281 -0.117188 2.332031 -0.09375 2.4375 -0.09375 L 2.578125 -0.09375 L 2.578125 0 L 0.546875 0 L 0.546875 -0.09375 L 0.6875 -0.09375 C 0.84375 -0.09375 0.972656 -0.144531 1.078125 -0.25 C 1.191406 -0.351562 1.25 -0.476562 1.25 -0.625 L 1.25 -5.34375 C 1.25 -5.488281 1.191406 -5.609375 1.078125 -5.703125 C 0.972656 -5.804688 0.84375 -5.859375 0.6875 -5.859375 L 0.546875 -5.859375 L 0.546875 -5.96875 L 3.046875 -5.96875 C 3.660156 -5.96875 4.148438 -5.820312 4.515625 -5.53125 C 4.878906 -5.25 5.0625 -4.875 5.0625 -4.40625 C 5.0625 -3.945312 4.914062 -3.5625 4.625 -3.25 C 4.332031 -2.9375 3.960938 -2.757812 3.515625 -2.71875 C 3.722656 -2.625 3.972656 -2.363281 4.265625 -1.9375 C 4.265625 -1.9375 4.378906 -1.789062 4.609375 -1.5 C 4.847656 -1.207031 5.035156 -0.976562 5.171875 -0.8125 C 5.316406 -0.65625 5.4375 -0.535156 5.53125 -0.453125 C 5.78125 -0.210938 6.0625 -0.09375 6.375 -0.09375 L 6.375 0 L 6.078125 0 C 5.546875 0 5.132812 -0.101562 4.84375 -0.3125 C 4.613281 -0.457031 4.40625 -0.644531 4.21875 -0.875 C 4.175781 -0.925781 4.007812 -1.160156 3.71875 -1.578125 C 3.425781 -1.992188 3.269531 -2.210938 3.25 -2.234375 C 2.894531 -2.679688 2.5625 -2.90625 2.25 -2.90625 L 2.25 -3 C 3.019531 -3 3.484375 -3.039062 3.640625 -3.125 C 3.859375 -3.238281 4.007812 -3.359375 4.09375 -3.484375 C 4.257812 -3.742188 4.34375 -4.035156 4.34375 -4.359375 C 4.34375 -4.753906 4.222656 -5.0625 3.984375 -5.28125 C 3.742188 -5.5 3.421875 -5.617188 3.015625 -5.640625 C 2.835938 -5.648438 2.632812 -5.65625 2.40625 -5.65625 Z M 2.40625 -5.65625 "/></g></g></g><g fill="#8c52ff" fill-opacity="1"><g transform="translate(223.071482, 237.126035)"><g/></g></g><g fill="#8c52ff" fill-opacity="1"><g transform="translate(226.251532, 237.126035)"><g><path d="M 4.6875 -6.84375 L 4.6875 -6.015625 L 4.59375 -6.015625 L 4.59375 -6.15625 C 4.59375 -6.289062 4.546875 -6.40625 4.453125 -6.5 C 4.359375 -6.59375 4.242188 -6.640625 4.109375 -6.640625 L 2 -6.640625 L 2 -3.578125 L 3.6875 -3.578125 C 3.820312 -3.585938 3.929688 -3.632812 4.015625 -3.71875 C 4.109375 -3.8125 4.15625 -3.925781 4.15625 -4.0625 L 4.15625 -4.21875 L 4.265625 -4.21875 L 4.265625 -2.640625 L 4.15625 -2.640625 L 4.15625 -2.796875 C 4.15625 -2.921875 4.109375 -3.03125 4.015625 -3.125 C 3.929688 -3.21875 3.828125 -3.269531 3.703125 -3.28125 L 2 -3.28125 L 2 -0.71875 C 2 -0.550781 2.0625 -0.40625 2.1875 -0.28125 C 2.320312 -0.15625 2.472656 -0.09375 2.640625 -0.09375 L 2.765625 -0.09375 L 2.765625 0 L 0.59375 0 L 0.59375 -0.09375 L 0.71875 -0.09375 C 0.894531 -0.09375 1.039062 -0.15625 1.15625 -0.28125 C 1.28125 -0.40625 1.347656 -0.550781 1.359375 -0.71875 L 1.359375 -6.296875 C 1.359375 -6.453125 1.289062 -6.582031 1.15625 -6.6875 C 1.03125 -6.800781 0.882812 -6.859375 0.71875 -6.859375 L 0.609375 -6.859375 L 0.59375 -6.953125 L 3.515625 -6.953125 C 3.710938 -6.953125 3.929688 -6.972656 4.171875 -7.015625 C 4.421875 -7.054688 4.59375 -7.097656 4.6875 -7.140625 Z M 4.6875 -6.84375 "/></g></g></g><g fill="#8c52ff" fill-opacity="1"><g transform="translate(232.323412, 237.126035)"><g><path d="M 0.6875 -0.09375 C 0.84375 -0.09375 0.972656 -0.144531 1.078125 -0.25 C 1.191406 -0.351562 1.253906 -0.476562 1.265625 -0.625 L 1.265625 -5.328125 C 1.253906 -5.472656 1.191406 -5.597656 1.078125 -5.703125 C 0.960938 -5.804688 0.828125 -5.859375 0.671875 -5.859375 L 0.546875 -5.859375 L 0.546875 -5.96875 L 2.609375 -5.96875 L 2.609375 -5.859375 L 2.484375 -5.859375 C 2.328125 -5.859375 2.1875 -5.804688 2.0625 -5.703125 C 1.945312 -5.597656 1.890625 -5.472656 1.890625 -5.328125 L 1.890625 -0.3125 L 3.453125 -0.3125 C 3.753906 -0.3125 4.007812 -0.363281 4.21875 -0.46875 C 4.4375 -0.570312 4.597656 -0.695312 4.703125 -0.84375 C 4.816406 -0.988281 4.925781 -1.179688 5.03125 -1.421875 L 5.125 -1.421875 L 4.578125 0 L 0.546875 0 L 0.546875 -0.09375 Z M 0.6875 -0.09375 "/></g></g></g><g fill="#8c52ff" fill-opacity="1"><g transform="translate(238.345613, 237.126035)"><g><path d="M 0.6875 -0.09375 C 0.863281 -0.09375 1.015625 -0.144531 1.140625 -0.25 C 1.273438 -0.363281 1.34375 -0.492188 1.34375 -0.640625 L 1.34375 -5.328125 C 1.34375 -5.472656 1.273438 -5.597656 1.140625 -5.703125 C 1.015625 -5.804688 0.859375 -5.859375 0.671875 -5.859375 L 0.546875 -5.859375 L 0.546875 -5.96875 L 2.796875 -5.96875 L 2.796875 -5.859375 L 2.65625 -5.859375 C 2.476562 -5.859375 2.320312 -5.804688 2.1875 -5.703125 C 2.0625 -5.609375 1.992188 -5.488281 1.984375 -5.34375 L 1.984375 -0.625 C 1.992188 -0.476562 2.0625 -0.351562 2.1875 -0.25 C 2.320312 -0.144531 2.476562 -0.09375 2.65625 -0.09375 L 2.796875 -0.09375 L 2.796875 0 L 0.546875 0 L 0.546875 -0.09375 Z M 0.6875 -0.09375 "/></g></g></g><g fill="#8c52ff" fill-opacity="1"><g transform="translate(242.380293, 237.126035)"><g><path d="M 3.75 0.140625 C 2.769531 0.128906 1.984375 -0.148438 1.390625 -0.703125 C 0.796875 -1.265625 0.5 -2.023438 0.5 -2.984375 C 0.5 -3.941406 0.796875 -4.703125 1.390625 -5.265625 C 1.984375 -5.828125 2.75 -6.109375 3.6875 -6.109375 C 4.625 -6.109375 5.421875 -5.90625 6.078125 -5.5 L 6.296875 -4.09375 L 6.203125 -4.09375 C 6.066406 -4.675781 5.796875 -5.101562 5.390625 -5.375 C 4.992188 -5.65625 4.425781 -5.796875 3.6875 -5.796875 C 2.957031 -5.796875 2.363281 -5.539062 1.90625 -5.03125 C 1.445312 -4.53125 1.21875 -3.84375 1.21875 -2.96875 C 1.21875 -2.101562 1.445312 -1.414062 1.90625 -0.90625 C 2.375 -0.40625 3.015625 -0.15625 3.828125 -0.15625 C 4.648438 -0.15625 5.351562 -0.445312 5.9375 -1.03125 L 5.953125 -2.34375 C 5.960938 -2.46875 5.925781 -2.5625 5.84375 -2.625 C 5.757812 -2.695312 5.644531 -2.734375 5.5 -2.734375 L 5.359375 -2.734375 L 5.359375 -2.828125 L 7.171875 -2.828125 L 7.171875 -2.734375 L 7.03125 -2.734375 C 6.738281 -2.734375 6.59375 -2.597656 6.59375 -2.328125 L 6.59375 -1.140625 C 6.3125 -0.796875 5.925781 -0.492188 5.4375 -0.234375 C 4.945312 0.015625 4.382812 0.140625 3.75 0.140625 Z M 3.75 0.140625 "/></g></g></g><g fill="#8c52ff" fill-opacity="1"><g transform="translate(250.449636, 237.126035)"><g><path d="M 4.96875 -0.09375 C 5.125 -0.09375 5.253906 -0.144531 5.359375 -0.25 C 5.472656 -0.351562 5.535156 -0.476562 5.546875 -0.625 L 5.546875 -2.796875 L 1.875 -2.796875 L 1.875 -0.625 C 1.882812 -0.476562 1.941406 -0.351562 2.046875 -0.25 C 2.160156 -0.144531 2.296875 -0.09375 2.453125 -0.09375 L 2.578125 -0.09375 L 2.578125 0 L 0.546875 0 L 0.546875 -0.09375 L 0.671875 -0.09375 C 0.828125 -0.09375 0.957031 -0.144531 1.0625 -0.25 C 1.175781 -0.363281 1.238281 -0.492188 1.25 -0.640625 L 1.25 -5.328125 C 1.238281 -5.472656 1.175781 -5.597656 1.0625 -5.703125 C 0.945312 -5.804688 0.816406 -5.859375 0.671875 -5.859375 L 0.546875 -5.859375 L 0.546875 -5.96875 L 2.578125 -5.96875 L 2.578125 -5.859375 L 2.453125 -5.859375 C 2.296875 -5.859375 2.160156 -5.804688 2.046875 -5.703125 C 1.941406 -5.609375 1.882812 -5.488281 1.875 -5.34375 L 1.875 -3.09375 L 5.546875 -3.09375 L 5.546875 -5.328125 C 5.546875 -5.472656 5.503906 -5.585938 5.421875 -5.671875 C 5.273438 -5.796875 5.125 -5.859375 4.96875 -5.859375 L 4.84375 -5.859375 L 4.84375 -5.96875 L 6.875 -5.96875 L 6.875 -5.859375 L 6.75 -5.859375 C 6.601562 -5.859375 6.472656 -5.804688 6.359375 -5.703125 C 6.242188 -5.609375 6.1875 -5.488281 6.1875 -5.34375 L 6.1875 -0.625 C 6.1875 -0.476562 6.226562 -0.367188 6.3125 -0.296875 C 6.457031 -0.160156 6.601562 -0.09375 6.75 -0.09375 L 6.875 -0.09375 L 6.875 0 L 4.84375 0 L 4.84375 -0.09375 Z M 4.96875 -0.09375 "/></g></g></g><g fill="#8c52ff" fill-opacity="1"><g transform="translate(258.558725, 237.126035)"><g><path d="M 3.203125 -5.671875 L 3.203125 -0.625 C 3.203125 -0.414062 3.300781 -0.265625 3.5 -0.171875 C 3.582031 -0.117188 3.675781 -0.09375 3.78125 -0.09375 L 3.890625 -0.09375 L 3.890625 0 L 1.84375 0 L 1.84375 -0.09375 L 1.96875 -0.09375 C 2.125 -0.09375 2.257812 -0.144531 2.375 -0.25 C 2.488281 -0.363281 2.546875 -0.492188 2.546875 -0.640625 L 2.546875 -5.671875 L 0.75 -5.671875 C 0.601562 -5.671875 0.484375 -5.617188 0.390625 -5.515625 C 0.304688 -5.421875 0.265625 -5.304688 0.265625 -5.171875 L 0.265625 -5.015625 L 0.15625 -5.015625 L 0.15625 -6.125 C 0.28125 -6.070312 0.460938 -6.03125 0.703125 -6 C 0.953125 -5.976562 1.132812 -5.96875 1.25 -5.96875 L 4.484375 -5.96875 C 4.960938 -5.96875 5.335938 -6.019531 5.609375 -6.125 L 5.609375 -5.015625 L 5.5 -5.015625 L 5.5 -5.171875 C 5.5 -5.304688 5.453125 -5.421875 5.359375 -5.515625 C 5.265625 -5.617188 5.144531 -5.671875 5 -5.671875 Z M 3.203125 -5.671875 "/></g></g></g><g fill="#8c52ff" fill-opacity="1"><g transform="translate(264.998303, 237.126035)"><g><path d="M 0.453125 0.8125 C 0.628906 0.75 0.75 0.660156 0.8125 0.546875 C 0.875 0.441406 0.90625 0.363281 0.90625 0.3125 C 0.90625 0.144531 0.835938 -0.0078125 0.703125 -0.15625 C 0.609375 -0.269531 0.550781 -0.347656 0.53125 -0.390625 C 0.507812 -0.484375 0.519531 -0.570312 0.5625 -0.65625 C 0.613281 -0.789062 0.722656 -0.859375 0.890625 -0.859375 C 1.085938 -0.859375 1.222656 -0.765625 1.296875 -0.578125 C 1.367188 -0.398438 1.40625 -0.253906 1.40625 -0.140625 C 1.40625 0.203125 1.28125 0.472656 1.03125 0.671875 C 0.863281 0.804688 0.675781 0.878906 0.46875 0.890625 Z M 0.453125 0.8125 "/></g></g></g><g fill="#8c52ff" fill-opacity="1"><g transform="translate(267.532403, 237.126035)"><g/></g></g><g fill="#8c52ff" fill-opacity="1"><g transform="translate(270.712452, 237.126035)"><g><path d="M 6.6875 -6.859375 L 6.546875 -6.859375 C 6.347656 -6.859375 6.160156 -6.800781 5.984375 -6.6875 C 5.816406 -6.582031 5.671875 -6.445312 5.546875 -6.28125 L 3.59375 -3.09375 L 3.59375 -0.71875 C 3.59375 -0.550781 3.648438 -0.40625 3.765625 -0.28125 C 3.890625 -0.15625 4.046875 -0.09375 4.234375 -0.09375 L 4.34375 -0.09375 L 4.34375 0 L 2.1875 0 L 2.1875 -0.09375 L 2.3125 -0.09375 C 2.476562 -0.09375 2.625 -0.148438 2.75 -0.265625 C 2.875 -0.390625 2.941406 -0.539062 2.953125 -0.71875 L 2.953125 -3.109375 L 1.046875 -6.28125 C 0.953125 -6.4375 0.8125 -6.570312 0.625 -6.6875 C 0.445312 -6.800781 0.257812 -6.859375 0.0625 -6.859375 L -0.078125 -6.859375 L -0.078125 -6.953125 L 2.359375 -6.953125 L 2.359375 -6.859375 L 2.234375 -6.859375 C 2.085938 -6.859375 1.972656 -6.789062 1.890625 -6.65625 C 1.847656 -6.582031 1.828125 -6.507812 1.828125 -6.4375 C 1.828125 -6.375 1.847656 -6.304688 1.890625 -6.234375 L 3.375 -3.453125 L 4.96875 -6.25 C 5 -6.3125 5.015625 -6.375 5.015625 -6.4375 C 5.015625 -6.507812 4.988281 -6.582031 4.9375 -6.65625 C 4.863281 -6.789062 4.753906 -6.859375 4.609375 -6.859375 L 4.484375 -6.859375 L 4.484375 -6.953125 L 6.6875 -6.953125 Z M 6.6875 -6.859375 "/></g></g></g><g fill="#8c52ff" fill-opacity="1"><g transform="translate(277.976852, 237.126035)"><g><path d="M 2.171875 -5.703125 C 2.679688 -5.972656 3.238281 -6.109375 3.84375 -6.109375 C 4.457031 -6.109375 5.019531 -5.972656 5.53125 -5.703125 C 6.039062 -5.441406 6.445312 -5.070312 6.75 -4.59375 C 7.050781 -4.125 7.203125 -3.585938 7.203125 -2.984375 C 7.203125 -2.378906 7.050781 -1.835938 6.75 -1.359375 C 6.445312 -0.878906 6.039062 -0.507812 5.53125 -0.25 C 5.019531 0.0078125 4.492188 0.140625 3.953125 0.140625 C 3.421875 0.140625 2.945312 0.0664062 2.53125 -0.078125 C 2.125 -0.234375 1.769531 -0.445312 1.46875 -0.71875 C 1.175781 -1 0.941406 -1.332031 0.765625 -1.71875 C 0.585938 -2.113281 0.5 -2.570312 0.5 -3.09375 C 0.5 -3.625 0.648438 -4.125 0.953125 -4.59375 C 1.253906 -5.070312 1.660156 -5.441406 2.171875 -5.703125 Z M 1.984375 -0.9375 C 2.484375 -0.414062 3.101562 -0.15625 3.84375 -0.15625 C 4.582031 -0.15625 5.203125 -0.414062 5.703125 -0.9375 C 6.210938 -1.46875 6.46875 -2.144531 6.46875 -2.96875 C 6.46875 -3.800781 6.210938 -4.476562 5.703125 -5 C 5.203125 -5.53125 4.582031 -5.796875 3.84375 -5.796875 C 3.101562 -5.796875 2.484375 -5.53125 1.984375 -5 C 1.484375 -4.476562 1.234375 -3.800781 1.234375 -2.96875 C 1.234375 -2.144531 1.484375 -1.46875 1.984375 -0.9375 Z M 1.984375 -0.9375 "/></g></g></g><g fill="#8c52ff" fill-opacity="1"><g transform="translate(286.364192, 237.126035)"><g><path d="M 6.609375 -5.859375 L 6.453125 -5.859375 C 6.273438 -5.859375 6.140625 -5.789062 6.046875 -5.65625 C 6.015625 -5.59375 5.992188 -5.523438 5.984375 -5.453125 L 5.984375 -2.09375 C 5.984375 -1.40625 5.757812 -0.859375 5.3125 -0.453125 C 4.875 -0.0546875 4.269531 0.140625 3.5 0.140625 C 2.738281 0.140625 2.132812 -0.0546875 1.6875 -0.453125 C 1.25 -0.847656 1.03125 -1.394531 1.03125 -2.09375 L 1.03125 -5.4375 C 1.03125 -5.550781 0.984375 -5.648438 0.890625 -5.734375 C 0.796875 -5.816406 0.679688 -5.859375 0.546875 -5.859375 L 0.390625 -5.859375 L 0.390625 -5.96875 L 2.28125 -5.96875 L 2.28125 -5.859375 L 2.140625 -5.859375 C 2.003906 -5.859375 1.890625 -5.816406 1.796875 -5.734375 C 1.703125 -5.648438 1.65625 -5.550781 1.65625 -5.4375 L 1.65625 -2.203125 C 1.65625 -1.566406 1.816406 -1.0625 2.140625 -0.6875 C 2.472656 -0.3125 2.9375 -0.125 3.53125 -0.125 C 4.132812 -0.125 4.617188 -0.300781 4.984375 -0.65625 C 5.347656 -1.007812 5.53125 -1.488281 5.53125 -2.09375 L 5.53125 -5.4375 C 5.519531 -5.5625 5.46875 -5.660156 5.375 -5.734375 C 5.289062 -5.816406 5.179688 -5.859375 5.046875 -5.859375 L 4.90625 -5.859375 L 4.90625 -5.96875 L 6.609375 -5.96875 Z M 6.609375 -5.859375 "/></g></g></g><g fill="#8c52ff" fill-opacity="1"><g transform="translate(294.016152, 237.126035)"><g><path d="M 2.40625 -5.65625 L 1.875 -5.65625 L 1.875 -0.640625 C 1.882812 -0.429688 1.976562 -0.273438 2.15625 -0.171875 C 2.238281 -0.117188 2.332031 -0.09375 2.4375 -0.09375 L 2.578125 -0.09375 L 2.578125 0 L 0.546875 0 L 0.546875 -0.09375 L 0.6875 -0.09375 C 0.84375 -0.09375 0.972656 -0.144531 1.078125 -0.25 C 1.191406 -0.351562 1.25 -0.476562 1.25 -0.625 L 1.25 -5.34375 C 1.25 -5.488281 1.191406 -5.609375 1.078125 -5.703125 C 0.972656 -5.804688 0.84375 -5.859375 0.6875 -5.859375 L 0.546875 -5.859375 L 0.546875 -5.96875 L 3.046875 -5.96875 C 3.660156 -5.96875 4.148438 -5.820312 4.515625 -5.53125 C 4.878906 -5.25 5.0625 -4.875 5.0625 -4.40625 C 5.0625 -3.945312 4.914062 -3.5625 4.625 -3.25 C 4.332031 -2.9375 3.960938 -2.757812 3.515625 -2.71875 C 3.722656 -2.625 3.972656 -2.363281 4.265625 -1.9375 C 4.265625 -1.9375 4.378906 -1.789062 4.609375 -1.5 C 4.847656 -1.207031 5.035156 -0.976562 5.171875 -0.8125 C 5.316406 -0.65625 5.4375 -0.535156 5.53125 -0.453125 C 5.78125 -0.210938 6.0625 -0.09375 6.375 -0.09375 L 6.375 0 L 6.078125 0 C 5.546875 0 5.132812 -0.101562 4.84375 -0.3125 C 4.613281 -0.457031 4.40625 -0.644531 4.21875 -0.875 C 4.175781 -0.925781 4.007812 -1.160156 3.71875 -1.578125 C 3.425781 -1.992188 3.269531 -2.210938 3.25 -2.234375 C 2.894531 -2.679688 2.5625 -2.90625 2.25 -2.90625 L 2.25 -3 C 3.019531 -3 3.484375 -3.039062 3.640625 -3.125 C 3.859375 -3.238281 4.007812 -3.359375 4.09375 -3.484375 C 4.257812 -3.742188 4.34375 -4.035156 4.34375 -4.359375 C 4.34375 -4.753906 4.222656 -5.0625 3.984375 -5.28125 C 3.742188 -5.5 3.421875 -5.617188 3.015625 -5.640625 C 2.835938 -5.648438 2.632812 -5.65625 2.40625 -5.65625 Z M 2.40625 -5.65625 "/></g></g></g><g fill="#8c52ff" fill-opacity="1"><g transform="translate(300.942665, 237.126035)"><g/></g></g><g fill="#8c52ff" fill-opacity="1"><g transform="translate(304.122715, 237.126035)"><g><path d="M 9.875 -6.859375 L 9.796875 -6.859375 C 9.546875 -6.859375 9.328125 -6.769531 9.140625 -6.59375 C 9.035156 -6.5 8.960938 -6.378906 8.921875 -6.234375 L 7.265625 -0.984375 C 7.140625 -0.566406 7.066406 -0.195312 7.046875 0.125 L 6.96875 0.125 L 4.9375 -5.5625 L 3.421875 -0.984375 C 3.296875 -0.578125 3.226562 -0.207031 3.21875 0.125 L 3.125 0.125 L 0.875 -6.25 C 0.789062 -6.445312 0.664062 -6.597656 0.5 -6.703125 C 0.332031 -6.804688 0.164062 -6.859375 0 -6.859375 L -0.078125 -6.859375 L -0.078125 -6.953125 L 2.125 -6.953125 L 2.125 -6.859375 L 2.03125 -6.859375 C 1.894531 -6.859375 1.789062 -6.8125 1.71875 -6.71875 C 1.644531 -6.632812 1.609375 -6.550781 1.609375 -6.46875 C 1.609375 -6.382812 1.617188 -6.3125 1.640625 -6.25 L 3.15625 -1.40625 L 5 -7.109375 L 5.09375 -7.109375 L 7.046875 -1.609375 L 8.390625 -6.265625 C 8.398438 -6.335938 8.40625 -6.410156 8.40625 -6.484375 C 8.40625 -6.554688 8.375 -6.632812 8.3125 -6.71875 C 8.25 -6.8125 8.144531 -6.859375 8 -6.859375 L 7.921875 -6.859375 L 7.921875 -6.953125 L 9.875 -6.953125 Z M 9.875 -6.859375 "/></g></g></g><g fill="#8c52ff" fill-opacity="1"><g transform="translate(314.577075, 237.126035)"><g><path d="M 6.5625 -0.09375 L 6.640625 -0.09375 L 6.640625 0 L 4.59375 0 L 4.59375 -0.09375 L 4.6875 -0.09375 C 4.8125 -0.09375 4.90625 -0.132812 4.96875 -0.21875 C 5.03125 -0.3125 5.0625 -0.394531 5.0625 -0.46875 C 5.0625 -0.550781 5.050781 -0.628906 5.03125 -0.703125 L 4.484375 -2.015625 L 1.96875 -2.015625 L 1.421875 -0.71875 C 1.390625 -0.632812 1.375 -0.554688 1.375 -0.484375 C 1.375 -0.410156 1.40625 -0.328125 1.46875 -0.234375 C 1.53125 -0.140625 1.628906 -0.09375 1.765625 -0.09375 L 1.84375 -0.09375 L 1.84375 0 L -0.046875 0 L -0.046875 -0.09375 L 0.03125 -0.09375 C 0.164062 -0.09375 0.304688 -0.140625 0.453125 -0.234375 C 0.597656 -0.335938 0.71875 -0.484375 0.8125 -0.671875 C 2.257812 -3.773438 3.015625 -5.398438 3.078125 -5.546875 C 3.179688 -5.828125 3.238281 -6.015625 3.25 -6.109375 L 3.34375 -6.109375 L 5.796875 -0.671875 C 5.984375 -0.285156 6.238281 -0.09375 6.5625 -0.09375 Z M 2.09375 -2.3125 L 4.359375 -2.3125 L 3.25 -5.03125 Z M 2.09375 -2.3125 "/></g></g></g><g fill="#8c52ff" fill-opacity="1"><g transform="translate(321.861342, 237.126035)"><g><path d="M 6.40625 -5.859375 L 6.296875 -5.859375 C 6.109375 -5.859375 5.929688 -5.8125 5.765625 -5.71875 C 5.609375 -5.625 5.476562 -5.503906 5.375 -5.359375 L 3.46875 -2.46875 L 3.46875 -0.640625 C 3.46875 -0.492188 3.523438 -0.363281 3.640625 -0.25 C 3.753906 -0.144531 3.890625 -0.09375 4.046875 -0.09375 L 4.15625 -0.09375 L 4.15625 0 L 2.125 0 L 2.125 -0.09375 L 2.25 -0.09375 C 2.40625 -0.09375 2.539062 -0.144531 2.65625 -0.25 C 2.769531 -0.363281 2.828125 -0.492188 2.828125 -0.640625 L 2.828125 -2.46875 L 0.984375 -5.359375 C 0.753906 -5.691406 0.445312 -5.859375 0.0625 -5.859375 L -0.046875 -5.859375 L -0.046875 -5.96875 L 2.25 -5.96875 L 2.25 -5.859375 L 2.140625 -5.859375 C 2.015625 -5.859375 1.921875 -5.816406 1.859375 -5.734375 C 1.804688 -5.660156 1.78125 -5.59375 1.78125 -5.53125 C 1.78125 -5.476562 1.785156 -5.429688 1.796875 -5.390625 L 3.25 -2.8125 L 4.796875 -5.375 C 4.804688 -5.425781 4.8125 -5.476562 4.8125 -5.53125 C 4.8125 -5.59375 4.785156 -5.660156 4.734375 -5.734375 C 4.679688 -5.816406 4.585938 -5.859375 4.453125 -5.859375 L 4.328125 -5.859375 L 4.328125 -5.96875 L 6.40625 -5.96875 Z M 6.40625 -5.859375 "/></g></g></g></svg>