<svg xmlns="http://www.w3.org/2000/svg" xmlns:xlink="http://www.w3.org/1999/xlink" width="500" zoomAndPan="magnify" viewBox="0 0 375 374.999991" height="500" preserveAspectRatio="xMidYMid meet" version="1.0"><path fill="#5e17eb" d="M 236.347656 188.675781 C 238.429688 188.5 239.800781 187.425781 239.878906 186.984375 C 239.726562 186.609375 238.367188 184.925781 236.046875 185.234375 C 233.726562 185.546875 231.207031 185.707031 231.332031 186.640625 C 231.480469 186.96875 234.03125 188.550781 236.347656 188.675781 Z M 151.328125 160.492188 C 171.777344 157.011719 169.625 155.804688 180.941406 162.257812 C 189.664062 167.230469 203.550781 180.96875 209.472656 187.109375 L 215.972656 186.242188 C 211.949219 184.089844 209.132812 180.636719 208.566406 174.441406 C 211.703125 178.003906 214.417969 180.960938 229.3125 180.625 C 244.207031 180.296875 256.925781 190.429688 253.101562 200.898438 C 251.972656 199.335938 250.691406 198.019531 249.292969 196.910156 L 163.664062 217.347656 L 163.664062 217.339844 L 163.664062 217.347656 C 161.074219 208.898438 137.222656 205.472656 136.429688 196.898438 L 136.425781 196.886719 L 194.261719 189.148438 L 172.1875 161.933594 C 164.867188 167.253906 122.179688 169.617188 121.199219 162.285156 C 125.660156 164.675781 129.148438 164.273438 151.332031 160.492188 " fill-opacity="1" fill-rule="nonzero"/><path fill="#5e17eb" d="M 161.453125 168.226562 C 166.496094 167.367188 170.164062 166.644531 173 166.144531 L 177.800781 172.269531 C 162.996094 175.28125 125.371094 174.859375 124.597656 169.050781 C 129.054688 171.441406 139.269531 172.003906 161.453125 168.226562 " fill-opacity="1" fill-rule="nonzero"/><path fill="#5e17eb" d="M 167.519531 176.375 C 172.566406 175.519531 176.234375 174.796875 179.070312 174.292969 L 183.875 180.417969 C 169.066406 183.433594 131.148438 180.808594 130.367188 174.996094 C 134.832031 177.394531 145.335938 180.152344 167.519531 176.375 " fill-opacity="1" fill-rule="nonzero"/><path fill="#5e17eb" d="M 185.53125 181.644531 L 190.332031 187.773438 C 175.527344 190.78125 137.363281 186.316406 136.585938 180.503906 C 141.042969 182.898438 151.796875 187.503906 173.980469 183.726562 C 179.027344 182.867188 182.695312 182.148438 185.53125 181.644531 " fill-opacity="1" fill-rule="nonzero"/><path fill="#5e17eb" d="M 236.347656 188.675781 C 238.429688 188.5 239.800781 187.425781 239.878906 186.984375 C 239.726562 186.609375 238.367188 184.925781 236.046875 185.234375 C 233.726562 185.546875 231.207031 185.707031 231.332031 186.640625 C 231.480469 186.96875 234.03125 188.550781 236.347656 188.675781 Z M 151.328125 160.492188 C 171.777344 157.011719 169.625 155.804688 180.941406 162.257812 C 189.664062 167.230469 203.550781 180.96875 209.472656 187.109375 L 215.972656 186.242188 C 211.949219 184.089844 209.132812 180.636719 208.566406 174.441406 C 211.703125 178.003906 214.417969 180.960938 229.3125 180.625 C 244.207031 180.296875 256.925781 190.429688 253.101562 200.898438 C 251.972656 199.335938 250.691406 198.019531 249.292969 196.910156 L 163.664062 217.347656 L 163.664062 217.339844 L 163.664062 217.347656 C 161.074219 208.898438 137.222656 205.472656 136.429688 196.898438 L 136.425781 196.886719 L 194.261719 189.148438 L 172.1875 161.933594 C 164.867188 167.253906 122.179688 169.617188 121.199219 162.285156 C 125.660156 164.675781 129.148438 164.273438 151.332031 160.492188 " fill-opacity="1" fill-rule="nonzero"/><path fill="#5e17eb" d="M 161.453125 168.226562 C 166.496094 167.367188 170.164062 166.644531 173 166.144531 L 177.800781 172.269531 C 162.996094 175.28125 125.371094 174.859375 124.597656 169.050781 C 129.054688 171.441406 139.269531 172.003906 161.453125 168.226562 " fill-opacity="1" fill-rule="nonzero"/><path fill="#5e17eb" d="M 167.519531 176.375 C 172.566406 175.519531 176.234375 174.796875 179.070312 174.292969 L 183.875 180.417969 C 169.066406 183.433594 131.148438 180.808594 130.367188 174.996094 C 134.832031 177.394531 145.335938 180.152344 167.519531 176.375 " fill-opacity="1" fill-rule="nonzero"/><path fill="#5e17eb" d="M 185.53125 181.644531 L 190.332031 187.773438 C 175.527344 190.78125 137.363281 186.316406 136.585938 180.503906 C 141.042969 182.898438 151.796875 187.503906 173.980469 183.726562 C 179.027344 182.867188 182.695312 182.148438 185.53125 181.644531 " fill-opacity="1" fill-rule="nonzero"/></svg>